<svg width="36" height="36" viewBox="0 0 36 36" fill="none" xmlns="http://www.w3.org/2000/svg">
<path d="M30.375 9.5625H24.1875V9C24.1875 7.35897 23.5356 5.78516 22.3752 4.62478C21.2148 3.4644 19.641 2.8125 18 2.8125C16.359 2.8125 14.7852 3.4644 13.6248 4.62478C12.4644 5.78516 11.8125 7.35897 11.8125 9V9.5625H5.625C5.17745 9.5625 4.74822 9.74029 4.43176 10.0568C4.11529 10.3732 3.9375 10.8024 3.9375 11.25V28.125C3.9375 28.5726 4.11529 29.0018 4.43176 29.3182C4.74822 29.6347 5.17745 29.8125 5.625 29.8125H30.375C30.8226 29.8125 31.2518 29.6347 31.5682 29.3182C31.8847 29.0018 32.0625 28.5726 32.0625 28.125V11.25C32.0625 10.8024 31.8847 10.3732 31.5682 10.0568C31.2518 9.74029 30.8226 9.5625 30.375 9.5625ZM12.9375 9C12.9375 7.65734 13.4709 6.36967 14.4203 5.42027C15.3697 4.47087 16.6573 3.9375 18 3.9375C19.3427 3.9375 20.6303 4.47087 21.5797 5.42027C22.5291 6.36967 23.0625 7.65734 23.0625 9V9.5625H12.9375V9ZM30.9375 28.125C30.9375 28.2742 30.8782 28.4173 30.7727 28.5227C30.6673 28.6282 30.5242 28.6875 30.375 28.6875H5.625C5.47582 28.6875 5.33274 28.6282 5.22725 28.5227C5.12176 28.4173 5.0625 28.2742 5.0625 28.125V11.25C5.0625 11.1008 5.12176 10.9577 5.22725 10.8523C5.33274 10.7468 5.47582 10.6875 5.625 10.6875H11.8125V13.5C11.8125 13.6492 11.8718 13.7923 11.9773 13.8977C12.0827 14.0032 12.2258 14.0625 12.375 14.0625C12.5242 14.0625 12.6673 14.0032 12.7727 13.8977C12.8782 13.7923 12.9375 13.6492 12.9375 13.5V10.6875H23.0625V13.5C23.0625 13.6492 23.1218 13.7923 23.2273 13.8977C23.3327 14.0032 23.4758 14.0625 23.625 14.0625C23.7742 14.0625 23.9173 14.0032 24.0227 13.8977C24.1282 13.7923 24.1875 13.6492 24.1875 13.5V10.6875H30.375C30.5242 10.6875 30.6673 10.7468 30.7727 10.8523C30.8782 10.9577 30.9375 11.1008 30.9375 11.25V28.125Z" fill="black"/>
</svg>
