<svg width="36" height="36" viewBox="0 0 36 36" fill="none" xmlns="http://www.w3.org/2000/svg">
<path d="M6.36 18.375C5.76691 17.7858 5.29701 17.0845 4.97768 16.312C4.65834 15.5394 4.49596 14.711 4.5 13.875C4.5 12.1842 5.17165 10.5627 6.36719 9.36719C7.56274 8.17165 9.18425 7.5 10.875 7.5C13.245 7.5 15.315 8.79 16.41 10.71H18.09C18.6467 9.73358 19.4522 8.92213 20.4244 8.35826C21.3967 7.79439 22.5011 7.49825 23.625 7.5C25.3158 7.5 26.9373 8.17165 28.1328 9.36719C29.3284 10.5627 30 12.1842 30 13.875C30 15.63 29.25 17.25 28.14 18.375L17.25 29.25L6.36 18.375ZM29.19 19.44C30.615 18 31.5 16.05 31.5 13.875C31.5 11.7864 30.6703 9.78338 29.1935 8.30653C27.7166 6.82968 25.7136 6 23.625 6C21 6 18.675 7.275 17.25 9.255C16.5227 8.24474 15.5649 7.42247 14.4562 6.85639C13.3475 6.2903 12.1198 5.99672 10.875 6C8.78642 6 6.78338 6.82968 5.30653 8.30653C3.82969 9.78338 3 11.7864 3 13.875C3 16.05 3.885 18 5.31 19.44L17.25 31.38L29.19 19.44Z" fill="black"/>
</svg>
