<svg width="36" height="36" viewBox="0 0 36 36" fill="none" xmlns="http://www.w3.org/2000/svg">
<path d="M31.5 18C31.5043 20.6801 30.7071 23.3003 29.211 25.524C27.9771 27.3645 26.3087 28.8726 24.3533 29.9149C22.398 30.9573 20.2158 31.5017 18 31.5C15.7842 31.5017 13.6021 30.9573 11.6467 29.9149C9.69128 28.8726 8.02287 27.3645 6.789 25.524C5.6141 23.7726 4.86585 21.7703 4.60426 19.6777C4.34266 17.585 4.57499 15.4601 5.28262 13.4734C5.99025 11.4867 7.15349 9.69344 8.6791 8.23733C10.2047 6.78122 12.0502 5.7028 14.0678 5.08851C16.0853 4.47421 18.2187 4.34114 20.2969 4.69996C22.3751 5.05877 24.3403 5.89949 26.0351 7.15473C27.7298 8.40996 29.1069 10.0448 30.0559 11.9282C31.0049 13.8115 31.4995 15.891 31.5 18Z" stroke="black" stroke-width="2"/>
<path d="M20.25 13.5C20.25 14.0967 20.0129 14.669 19.5909 15.091C19.169 15.5129 18.5967 15.75 18 15.75V17.25C18.4924 17.25 18.98 17.153 19.435 16.9645C19.89 16.7761 20.3034 16.4999 20.6516 16.1517C20.9998 15.8034 21.276 15.39 21.4645 14.9351C21.653 14.4801 21.75 13.9925 21.75 13.5H20.25ZM18 15.75C17.4032 15.75 16.8309 15.5129 16.409 15.091C15.987 14.669 15.75 14.0967 15.75 13.5H14.25C14.25 13.9925 14.3469 14.4801 14.5354 14.9351C14.7239 15.39 15.0001 15.8034 15.3483 16.1517C16.0516 16.8549 17.0054 17.25 18 17.25V15.75ZM15.75 13.5C15.75 12.9033 15.987 12.331 16.409 11.909C16.8309 11.4871 17.4032 11.25 18 11.25V9.75C17.0054 9.75 16.0516 10.1451 15.3483 10.8483C14.645 11.5516 14.25 12.5054 14.25 13.5H15.75ZM18 11.25C18.5967 11.25 19.169 11.4871 19.5909 11.909C20.0129 12.331 20.25 12.9033 20.25 13.5H21.75C21.75 12.5054 21.3549 11.5516 20.6516 10.8483C19.9483 10.1451 18.9945 9.75 18 9.75V11.25ZM7.74895 26.784L7.02895 26.571L6.91345 26.9625L7.17895 27.273L7.74895 26.784ZM28.251 26.784L28.821 27.273L29.0865 26.9625L28.9695 26.571L28.251 26.784ZM13.5 23.25H22.5V21.75H13.5V23.25ZM13.5 21.75C12.0462 21.7498 10.6313 22.2189 9.46563 23.0875C8.29998 23.9562 7.44439 25.1779 7.02895 26.571L8.46745 26.9985C8.79081 25.9151 9.45529 24.965 10.362 24.2896C11.2688 23.6142 12.3693 23.2496 13.5 23.25V21.75ZM18 30.75C16.1599 30.752 14.3412 30.3547 12.6696 29.5855C10.9979 28.8164 9.51308 27.6937 8.31745 26.295L7.17895 27.273C8.51553 28.8356 10.1751 30.0898 12.0433 30.949C13.9114 31.8083 15.9437 32.2521 18 32.25V30.75ZM22.5 23.25C23.6308 23.2497 24.7315 23.6146 25.6382 24.2902C26.545 24.9659 27.2094 25.9163 27.5325 27L28.9695 26.571C28.554 25.1779 27.6999 23.9562 26.5343 23.0875C25.3686 22.2189 23.9537 21.7498 22.5 21.75V23.25ZM27.6825 26.295C26.4868 27.6937 25.002 28.8164 23.3303 29.5855C21.6587 30.3547 19.84 30.752 18 30.75V32.25C20.0562 32.2521 22.0885 31.8083 23.9566 30.949C25.8248 30.0898 27.4844 28.8356 28.821 27.273L27.6825 26.295Z" fill="black"/>
</svg>
