<svg width="36" height="36" viewBox="0 0 36 36" fill="none" xmlns="http://www.w3.org/2000/svg">
<path d="M29.2275 30.231L19.8345 20.838C19.0845 21.477 18.222 21.9715 17.247 22.3215C16.272 22.6715 15.292 22.8465 14.307 22.8465C11.905 22.8465 9.87204 22.015 8.20804 20.352C6.54404 18.689 5.71204 16.6565 5.71204 14.2545C5.71204 11.8525 6.54304 9.81901 8.20504 8.15401C9.86704 6.48901 11.899 5.65551 14.301 5.65351C16.703 5.65151 18.737 6.48351 20.403 8.14951C22.069 9.81551 22.902 11.849 22.902 14.25C22.902 15.292 22.7175 16.3005 22.3485 17.2755C21.9795 18.2505 21.4945 19.0845 20.8935 19.7775L30.2865 29.169L29.2275 30.231ZM14.3085 21.345C16.2985 21.345 17.9785 20.66 19.3485 19.29C20.7185 17.92 21.4035 16.2395 21.4035 14.2485C21.4035 12.2575 20.7185 10.5775 19.3485 9.20851C17.9785 7.83951 16.2985 7.15451 14.3085 7.15351C12.3185 7.15251 10.638 7.83751 9.26704 9.20851C7.89604 10.5795 7.21104 12.2595 7.21204 14.2485C7.21304 16.2375 7.89804 17.9175 9.26704 19.2885C10.636 20.6595 12.316 21.3445 14.307 21.3435" fill="black"/>
</svg>
